<?xml version="1.0" encoding="UTF-8"?>
<svg xmlns="http://www.w3.org/2000/svg" xmlns:xlink="http://www.w3.org/1999/xlink" width="184.25pt" height="55.4pt" viewBox="0 0 184.25 55.4" version="1.1">
<defs>
<clipPath id="clip1">
  <path d="M 0 0 L 184.25 0 L 184.25 55.398438 L 0 55.398438 Z M 0 0 "/>
</clipPath>
</defs>
<g id="surface1">
<path style=" stroke:none;fill-rule:nonzero;fill:rgb(0%,20%,100%);fill-opacity:1;" d="M 54.328125 47.125 C 54.789063 47.335938 54.992188 47.882813 54.78125 48.339844 C 54.570313 48.800781 54.027344 49.003906 53.566406 48.792969 L 53.558594 48.789063 L 53.558594 48.792969 C 52.46875 48.300781 51.351563 47.835938 50.21875 47.402344 C 49.089844 46.96875 47.945313 46.570313 46.78125 46.203125 C 40.8125 44.3125 34.460938 43.289063 27.878906 43.289063 L 27.878906 43.292969 L 27.867188 43.292969 L 27.867188 43.289063 C 23.296875 43.289063 18.832031 43.785156 14.527344 44.722656 C 13.816406 44.875 13.121094 45.039063 12.4375 45.214844 C 8.890625 46.113281 5.457031 47.320313 2.179688 48.796875 C 1.71875 49.003906 1.175781 48.800781 0.964844 48.335938 C 0.757813 47.875 0.964844 47.332031 1.425781 47.125 C 4.800781 45.601563 8.335938 44.359375 11.992188 43.429688 C 12.710938 43.25 13.429688 43.078125 14.140625 42.925781 C 18.550781 41.964844 23.148438 41.460938 27.867188 41.460938 L 27.867188 41.457031 L 27.878906 41.457031 L 27.878906 41.460938 C 34.667969 41.460938 41.203125 42.507813 47.335938 44.449219 C 48.527344 44.824219 49.707031 45.238281 50.871094 45.683594 C 52.03125 46.128906 53.175781 46.605469 54.3125 47.117188 L 54.3125 47.121094 L 54.316406 47.121094 "/>
<g clip-path="url(#clip1)" clip-rule="nonzero">
<path style=" stroke:none;fill-rule:nonzero;fill:rgb(0%,0%,0%);fill-opacity:1;" d="M 15.171875 23.136719 L 15.171875 15.875 C 15.171875 14.910156 14.984375 13.945313 14.617188 13.023438 C 14.25 12.152344 13.746094 11.324219 13.054688 10.632813 C 12.414063 9.945313 11.632813 9.4375 10.664063 9.023438 C 9.746094 8.613281 8.734375 8.425781 7.585938 8.425781 C 6.4375 8.425781 5.425781 8.613281 4.460938 9.023438 C 3.539063 9.4375 2.757813 9.992188 2.070313 10.679688 C 1.425781 11.367188 0.917969 12.152344 0.550781 13.070313 C 0.183594 13.945313 0 14.910156 0 15.875 L 0 23.136719 C 0 24.101563 0.183594 25.070313 0.550781 25.988281 C 0.917969 26.859375 1.425781 27.6875 2.113281 28.378906 C 2.757813 29.066406 3.539063 29.574219 4.503906 29.988281 C 5.425781 30.402344 6.4375 30.585938 7.585938 30.585938 C 8.734375 30.585938 9.746094 30.402344 10.710938 29.988281 C 11.632813 29.574219 12.414063 29.023438 13.101563 28.332031 C 13.746094 27.644531 14.25 26.859375 14.617188 25.941406 C 14.984375 25.070313 15.171875 24.101563 15.171875 23.136719 M 11.632813 23.136719 C 11.632813 24.195313 11.261719 25.160156 10.574219 26.035156 C 9.882813 26.90625 8.871094 27.320313 7.585938 27.320313 C 6.296875 27.320313 5.289063 26.859375 4.597656 25.988281 C 3.90625 25.113281 3.539063 24.195313 3.539063 23.136719 L 3.539063 15.875 C 3.539063 14.816406 3.90625 13.851563 4.597656 12.976563 C 5.285156 12.105469 6.296875 11.691406 7.585938 11.691406 C 8.871094 11.691406 9.882813 12.152344 10.574219 13.023438 C 11.261719 13.898438 11.632813 14.816406 11.632813 15.875 Z M 36.40625 15.875 C 36.40625 14.910156 36.222656 13.945313 35.855469 13.023438 C 35.488281 12.152344 34.984375 11.324219 34.292969 10.632813 C 33.652344 9.945313 32.871094 9.4375 31.902344 9.023438 C 30.984375 8.613281 29.972656 8.425781 28.824219 8.425781 C 27.675781 8.425781 26.664063 8.613281 25.699219 9.023438 C 24.777344 9.4375 23.996094 9.992188 23.308594 10.679688 C 22.664063 11.367188 22.15625 12.152344 21.789063 13.070313 C 21.421875 13.945313 21.238281 14.910156 21.238281 15.875 L 21.238281 29.113281 C 21.238281 29.800781 21.558594 30.125 22.25 30.125 L 23.769531 30.125 C 24.457031 30.125 24.777344 29.800781 24.777344 29.113281 L 24.777344 23 C 24.777344 22.816406 24.871094 22.675781 25.007813 22.585938 C 25.148438 22.492188 25.28125 22.492188 25.511719 22.585938 C 26.664063 23.089844 27.765625 23.320313 28.824219 23.320313 C 29.972656 23.320313 30.984375 23.136719 31.949219 22.722656 C 32.871094 22.308594 33.652344 21.757813 34.339844 21.070313 C 34.984375 20.378906 35.488281 19.597656 35.855469 18.675781 C 36.222656 17.804688 36.40625 16.839844 36.40625 15.875 M 32.871094 15.875 C 32.871094 16.929688 32.5 17.898438 31.8125 18.769531 C 31.121094 19.644531 30.109375 20.058594 28.824219 20.058594 C 27.535156 20.058594 26.523438 19.597656 25.835938 18.722656 C 25.148438 17.851563 24.777344 16.929688 24.777344 15.875 C 24.777344 14.816406 25.148438 13.851563 25.835938 12.976563 C 26.523438 12.105469 27.535156 11.691406 28.824219 11.691406 C 30.109375 11.691406 31.121094 12.152344 31.8125 13.023438 C 32.5 13.898438 32.871094 14.816406 32.871094 15.875 M 56.824219 11.128906 L 56.824219 10.117188 C 56.824219 9.429688 56.503906 9.105469 55.8125 9.105469 L 42.667969 9.105469 C 41.976563 9.105469 41.65625 9.429688 41.65625 10.117188 L 41.65625 11.128906 C 41.65625 11.820313 41.976563 12.140625 42.667969 12.140625 L 46.480469 12.140625 C 47.171875 12.140625 47.492188 12.460938 47.492188 13.152344 L 47.492188 29.332031 C 47.492188 30.023438 47.816406 30.34375 48.503906 30.34375 L 49.976563 30.34375 C 50.664063 30.34375 50.984375 30.023438 50.984375 29.332031 L 50.984375 13.152344 C 50.984375 12.460938 51.308594 12.140625 52 12.140625 L 55.8125 12.140625 C 56.503906 12.140625 56.824219 11.820313 56.824219 11.128906 M 77.375 23.585938 L 77.375 15.863281 C 77.375 12.046875 74.613281 8.648438 70.476563 8.648438 C 66.339844 8.648438 63.582031 12.046875 63.582031 15.863281 L 63.582031 23.585938 C 63.582031 27.402344 66.339844 30.804688 70.476563 30.804688 C 74.613281 30.804688 77.375 27.402344 77.375 23.585938 M 75.214844 23.585938 C 75.214844 26.207031 73.464844 28.78125 70.476563 28.78125 C 67.488281 28.78125 65.742188 26.207031 65.742188 23.585938 L 65.742188 15.863281 C 65.742188 13.246094 67.488281 10.667969 70.476563 10.667969 C 73.464844 10.667969 75.214844 13.246094 75.214844 15.863281 Z M 98.609375 29.332031 L 98.609375 12.785156 C 98.609375 10.300781 97.324219 8.648438 94.75 8.648438 C 93.921875 8.648438 93.140625 8.878906 92.496094 9.289063 C 91.808594 9.703125 91.625 9.703125 90.933594 9.289063 C 90.289063 8.878906 89.507813 8.648438 88.679688 8.648438 C 86.105469 8.648438 84.820313 10.300781 84.820313 12.785156 L 84.820313 29.332031 C 84.820313 29.976563 85.1875 30.34375 85.832031 30.34375 L 85.96875 30.34375 C 86.613281 30.34375 86.980469 29.976563 86.980469 29.332031 L 86.980469 12.785156 C 86.980469 11.3125 87.671875 10.667969 88.773438 10.667969 C 89.921875 10.667969 90.65625 11.3125 90.65625 12.785156 L 90.65625 26.296875 C 90.65625 26.941406 91.074219 27.308594 91.714844 27.308594 C 92.359375 27.308594 92.773438 26.941406 92.773438 26.296875 L 92.773438 12.785156 C 92.773438 11.3125 93.554688 10.667969 94.65625 10.667969 C 95.761719 10.667969 96.449219 11.3125 96.449219 12.785156 L 96.449219 29.332031 C 96.449219 29.976563 96.820313 30.34375 97.460938 30.34375 L 97.597656 30.34375 C 98.242188 30.34375 98.609375 29.976563 98.609375 29.332031 M 116.402344 1.523438 C 117.089844 0.785156 116.722656 0.00390625 115.757813 0.00390625 C 114.652344 0.00390625 114.058594 0.785156 113.550781 1.613281 L 111.4375 5.152344 C 110.976563 5.933594 111.664063 6.667969 112.953125 5.289063 Z M 119.847656 18.574219 L 119.847656 15.863281 C 119.847656 12.046875 117.089844 8.648438 112.953125 8.648438 C 108.816406 8.648438 106.058594 12.046875 106.058594 15.863281 L 106.058594 23.585938 C 106.058594 27.402344 108.816406 30.804688 112.953125 30.804688 C 116.078125 30.804688 118.054688 29.011719 118.882813 27.402344 C 119.160156 26.898438 119.023438 26.296875 118.5625 25.976563 C 118.101563 25.65625 117.457031 25.792969 117.136719 26.296875 C 116.402344 27.355469 115.253906 28.78125 112.953125 28.78125 C 109.964844 28.78125 108.21875 26.207031 108.21875 23.585938 L 108.21875 22.621094 C 108.21875 21.335938 108.953125 20.597656 110.242188 20.597656 L 117.828125 20.597656 C 119.113281 20.597656 119.847656 19.863281 119.847656 18.574219 M 117.6875 16.828125 C 117.6875 18.117188 116.953125 18.851563 115.664063 18.851563 L 110.242188 18.851563 C 108.953125 18.851563 108.21875 18.117188 108.21875 16.828125 L 108.21875 15.863281 C 108.21875 13.246094 109.964844 10.667969 112.953125 10.667969 C 115.941406 10.667969 117.6875 13.246094 117.6875 15.863281 Z M 141.089844 9.980469 C 141.089844 9.472656 140.71875 9.105469 140.074219 9.105469 L 128.308594 9.105469 C 127.664063 9.105469 127.296875 9.472656 127.296875 9.980469 C 127.296875 10.484375 127.664063 10.851563 128.308594 10.851563 L 131.109375 10.851563 C 132.398438 10.851563 133.132813 11.589844 133.132813 12.875 L 133.132813 29.332031 C 133.132813 29.976563 133.503906 30.34375 134.144531 30.34375 L 134.28125 30.34375 C 134.925781 30.34375 135.296875 29.976563 135.296875 29.332031 L 135.296875 12.875 C 135.296875 11.589844 136.03125 10.851563 137.316406 10.851563 L 140.074219 10.851563 C 140.71875 10.851563 141.089844 10.484375 141.089844 9.980469 M 162.324219 18.574219 L 162.324219 15.863281 C 162.324219 12.046875 159.566406 8.648438 155.429688 8.648438 C 151.292969 8.648438 148.535156 12.046875 148.535156 15.863281 L 148.535156 23.585938 C 148.535156 27.402344 151.292969 30.804688 155.429688 30.804688 C 158.554688 30.804688 160.53125 29.011719 161.359375 27.402344 C 161.636719 26.898438 161.496094 26.296875 161.039063 25.976563 C 160.578125 25.65625 159.933594 25.792969 159.613281 26.296875 C 158.878906 27.355469 157.726563 28.78125 155.429688 28.78125 C 152.441406 28.78125 150.695313 26.207031 150.695313 23.585938 L 150.695313 22.621094 C 150.695313 21.335938 151.429688 20.597656 152.71875 20.597656 L 160.300781 20.597656 C 161.589844 20.597656 162.324219 19.863281 162.324219 18.574219 M 160.164063 16.828125 C 160.164063 18.117188 159.429688 18.851563 158.140625 18.851563 L 152.71875 18.851563 C 151.429688 18.851563 150.695313 18.117188 150.695313 16.828125 L 150.695313 15.863281 C 150.695313 13.246094 152.441406 10.667969 155.429688 10.667969 C 158.417969 10.667969 160.164063 13.246094 160.164063 15.863281 Z M 183.839844 11.773438 C 184.160156 11.3125 183.976563 10.714844 183.519531 10.394531 C 182.367188 9.613281 180.253906 8.648438 177.953125 8.648438 C 173.816406 8.648438 171.058594 12.046875 171.058594 15.863281 L 171.058594 29.332031 C 171.058594 29.976563 171.425781 30.34375 172.070313 30.34375 L 172.207031 30.34375 C 172.851563 30.34375 173.21875 29.976563 173.21875 29.332031 L 173.21875 15.863281 C 173.21875 13.246094 174.964844 10.667969 177.953125 10.667969 C 179.609375 10.667969 181.171875 11.359375 182.414063 12.09375 C 182.921875 12.417969 183.519531 12.277344 183.839844 11.773438 M 141.777344 53.925781 L 141.777344 52.917969 C 141.777344 52.226563 141.453125 51.90625 140.765625 51.90625 L 136.949219 51.90625 C 136.261719 51.90625 135.9375 51.582031 135.9375 50.894531 L 135.9375 37.746094 C 135.9375 37.058594 136.261719 36.734375 136.949219 36.734375 L 139.246094 36.734375 C 139.9375 36.734375 140.257813 36.414063 140.257813 35.722656 L 140.257813 34.714844 C 140.257813 34.023438 139.9375 33.703125 139.246094 33.703125 L 129.136719 33.703125 C 128.445313 33.703125 128.121094 34.023438 128.121094 34.714844 L 128.121094 35.722656 C 128.121094 36.414063 128.445313 36.734375 129.136719 36.734375 L 131.433594 36.734375 C 132.121094 36.734375 132.445313 37.058594 132.445313 37.746094 L 132.445313 50.894531 C 132.445313 51.582031 132.121094 51.90625 131.433594 51.90625 L 127.617188 51.90625 C 126.929688 51.90625 126.605469 52.226563 126.605469 52.917969 L 126.605469 53.925781 C 126.605469 54.617188 126.929688 54.9375 127.617188 54.9375 L 140.765625 54.9375 C 141.453125 54.9375 141.777344 54.617188 141.777344 53.925781 M 163.015625 53.925781 L 163.015625 50.019531 C 163.015625 48.230469 162.554688 46.757813 161.589844 45.605469 C 160.671875 44.457031 159.703125 43.675781 158.648438 43.21875 C 158.097656 42.988281 158.003906 42.480469 158.371094 41.839844 L 162.417969 34.941406 C 162.601563 34.621094 162.601563 34.300781 162.464844 34.070313 C 162.324219 33.839844 162.09375 33.703125 161.726563 33.703125 L 160.070313 33.703125 C 159.382813 33.703125 158.921875 34.023438 158.554688 34.667969 L 154.695313 41.609375 C 154.464844 42.023438 154.234375 42.34375 153.957031 42.574219 C 153.683594 42.804688 153.316406 42.894531 152.808594 42.894531 C 151.84375 42.894531 151.382813 42.480469 151.382813 41.609375 L 151.382813 34.714844 C 151.382813 34.023438 151.0625 33.703125 150.371094 33.703125 L 148.855469 33.703125 C 148.164063 33.703125 147.84375 34.023438 147.84375 34.714844 L 147.84375 53.925781 C 147.84375 54.617188 148.164063 54.9375 148.855469 54.9375 L 150.371094 54.9375 C 151.0625 54.9375 151.382813 54.617188 151.382813 53.925781 L 151.382813 50.019531 C 151.382813 48.964844 151.753906 47.996094 152.441406 47.125 C 153.132813 46.25 154.144531 45.835938 155.429688 45.835938 C 156.71875 45.835938 157.726563 46.296875 158.417969 47.171875 C 159.105469 48.042969 159.476563 48.964844 159.476563 50.019531 L 159.476563 53.925781 C 159.476563 54.617188 159.796875 54.9375 160.484375 54.9375 L 162.003906 54.9375 C 162.691406 54.9375 163.015625 54.617188 163.015625 53.925781 M 184.253906 53.925781 L 184.253906 40.6875 C 184.253906 39.722656 184.066406 38.757813 183.699219 37.839844 C 183.332031 36.964844 182.828125 36.140625 182.136719 35.449219 C 181.496094 34.757813 180.714844 34.253906 179.746094 33.839844 C 178.828125 33.425781 177.816406 33.242188 176.667969 33.242188 C 175.65625 33.242188 174.734375 33.378906 173.863281 33.609375 C 172.988281 33.839844 172.207031 34.160156 171.472656 34.574219 C 171.242188 34.714844 171.058594 34.898438 170.921875 35.125 C 170.785156 35.355469 170.785156 35.679688 170.96875 35.953125 L 171.566406 37.011719 C 171.886719 37.609375 172.347656 37.746094 172.851563 37.472656 C 173.3125 37.242188 173.863281 37.011719 174.507813 36.78125 C 175.148438 36.597656 175.886719 36.507813 176.667969 36.507813 C 177.953125 36.507813 178.964844 36.964844 179.65625 37.839844 C 180.34375 38.710938 180.714844 39.632813 180.714844 40.6875 C 180.714844 40.917969 180.667969 41.101563 180.527344 41.242188 C 180.390625 41.332031 180.253906 41.332031 180.070313 41.242188 C 179.011719 40.734375 177.910156 40.503906 176.667969 40.503906 C 175.519531 40.503906 174.507813 40.6875 173.542969 41.101563 C 172.621094 41.515625 171.839844 42.070313 171.152344 42.757813 C 170.507813 43.445313 170.003906 44.226563 169.632813 45.148438 C 169.265625 46.019531 169.082031 46.988281 169.082031 47.953125 C 169.082031 48.917969 169.265625 49.882813 169.632813 50.800781 C 170.003906 51.675781 170.507813 52.503906 171.195313 53.191406 C 171.839844 53.882813 172.621094 54.386719 173.589844 54.800781 C 174.507813 55.214844 175.519531 55.398438 176.667969 55.398438 C 177.585938 55.398438 178.367188 55.261719 179.058594 55.03125 C 179.703125 54.800781 180.253906 54.574219 180.667969 54.339844 C 180.894531 54.160156 181.128906 54.203125 181.3125 54.523438 C 181.449219 54.800781 181.722656 54.9375 182.046875 54.9375 L 183.242188 54.9375 C 183.929688 54.9375 184.253906 54.617188 184.253906 53.925781 M 180.714844 47.953125 C 180.714844 49.007813 180.34375 49.976563 179.65625 50.847656 C 178.964844 51.722656 177.953125 52.136719 176.667969 52.136719 C 175.378906 52.136719 174.371094 51.675781 173.679688 50.800781 C 172.988281 49.929688 172.621094 49.007813 172.621094 47.953125 C 172.621094 46.894531 172.988281 45.929688 173.679688 45.054688 C 174.371094 44.183594 175.378906 43.769531 176.667969 43.769531 C 177.953125 43.769531 178.964844 44.226563 179.65625 45.101563 C 180.34375 45.976563 180.714844 46.894531 180.714844 47.953125 M 77.375 48.183594 L 77.375 40.460938 C 77.375 36.644531 74.613281 33.242188 70.476563 33.242188 C 66.339844 33.242188 63.582031 36.644531 63.582031 40.460938 L 63.582031 48.183594 C 63.582031 51.996094 66.339844 55.398438 70.476563 55.398438 C 74.613281 55.398438 77.375 51.996094 77.375 48.183594 M 75.214844 48.183594 C 75.214844 50.800781 73.464844 53.375 70.476563 53.375 C 67.488281 53.375 65.742188 50.800781 65.742188 48.183594 L 65.742188 40.460938 C 65.742188 37.839844 67.488281 35.265625 70.476563 35.265625 C 73.464844 35.265625 75.214844 37.839844 75.214844 40.460938 Z M 98.609375 40.460938 C 98.609375 36.644531 95.851563 33.242188 91.714844 33.242188 C 87.578125 33.242188 84.820313 36.644531 84.820313 40.460938 L 84.820313 53.925781 C 84.820313 54.574219 85.1875 54.9375 85.832031 54.9375 L 85.96875 54.9375 C 86.613281 54.9375 86.980469 54.574219 86.980469 53.925781 L 86.980469 48.089844 C 86.980469 47.171875 87.714844 46.527344 88.679688 46.988281 C 89.695313 47.445313 90.703125 47.675781 91.714844 47.675781 C 95.851563 47.675781 98.609375 44.273438 98.609375 40.460938 M 96.449219 40.460938 C 96.449219 43.078125 94.703125 45.652344 91.714844 45.652344 C 88.726563 45.652344 86.980469 43.078125 86.980469 40.460938 C 86.980469 37.839844 88.726563 35.265625 91.714844 35.265625 C 94.703125 35.265625 96.449219 37.839844 96.449219 40.460938 M 119.847656 34.574219 C 119.847656 34.070313 119.480469 33.703125 118.839844 33.703125 L 107.070313 33.703125 C 106.425781 33.703125 106.058594 34.070313 106.058594 34.574219 C 106.058594 35.082031 106.425781 35.449219 107.070313 35.449219 L 109.871094 35.449219 C 111.160156 35.449219 111.894531 36.183594 111.894531 37.472656 L 111.894531 53.925781 C 111.894531 54.574219 112.265625 54.9375 112.90625 54.9375 L 113.046875 54.9375 C 113.6875 54.9375 114.058594 54.574219 114.058594 53.925781 L 114.058594 37.472656 C 114.058594 36.183594 114.792969 35.449219 116.078125 35.449219 L 118.839844 35.449219 C 119.480469 35.449219 119.847656 35.082031 119.847656 34.574219 "/>
</g>
</g>
</svg>
